<svg width="45" height="41" fill="none" xmlns="http://www.w3.org/2000/svg"><g clip-path="url(#clip0_159_216)"><path d="M27.055 21.713l-4.696-1.71-5.64 15.476H2.5a2.497 2.497 0 00-2.5 2.5c0 1.383 1.117 2.5 2.5 2.5h40c1.383 0 2.5-1.117 2.5-2.5s-1.117-2.5-2.5-2.5H22.04l5.007-13.766h.008zm9.46-.015l-.257.71 5.289 1.923c1.414.515 2.969-.329 3.094-1.829.507-6.132-1.868-12.148-6.313-16.289.156.625.25 1.274.266 1.938l.015.469c.141 4.453-.57 8.89-2.093 13.078zm-.42-13.478a6.73 6.73 0 00-4.25-6.047c-.07-.03-.149-.054-.219-.086a6.72 6.72 0 00-7.273 1.86l-.313.351a32.558 32.558 0 00-6.32 10.555l-.258.71 16.445 5.985.258-.71a32.496 32.496 0 001.945-12.15l-.015-.468zM8.375 9.3c-.867 1.227-.219 2.875 1.195 3.39l5.547 2.017.258-.711A35.026 35.026 0 0122.18 2.627l.312-.351A9.492 9.492 0 0124.094.854c-6.219.195-12.086 3.297-15.719 8.438v.007z" fill="#C39F7B"/></g><defs><clipPath id="clip0_159_216"><path fill="#fff" transform="translate(0 .479)" d="M0 0h45v40H0z"/></clipPath></defs></svg>