<svg width="26" height="26" fill="none" xmlns="http://www.w3.org/2000/svg"><path d="M13 22.75a32.25 32.25 0 01-3.792-3.825c-1.734-2.07-3.792-5.154-3.792-8.092A7.583 7.583 0 0118.364 5.47a7.534 7.534 0 012.219 5.363c0 2.938-2.059 6.022-3.792 8.092a32.254 32.254 0 01-3.792 3.825zm0-17.333a5.423 5.423 0 00-5.417 5.416c0 1.264.57 3.45 3.288 6.702.67.8 1.38 1.564 2.128 2.29a30.43 30.43 0 002.13-2.287c2.716-3.255 3.287-5.443 3.287-6.705a5.423 5.423 0 00-5.417-5.416zm0 8.666a3.25 3.25 0 110-6.5 3.25 3.25 0 010 6.5z" fill="#C39F7B"/><path fill-rule="evenodd" clip-rule="evenodd" d="M5.416 10.833c0 2.938 2.058 6.022 3.792 8.092a32.25 32.25 0 003.791 3.825 32.254 32.254 0 003.792-3.825c1.733-2.07 3.792-5.154 3.792-8.092a7.534 7.534 0 00-2.219-5.363 7.583 7.583 0 00-12.948 5.363zm11.222 7.964c.86-1.029 1.8-2.305 2.522-3.685.723-1.382 1.223-2.854 1.223-4.279a7.335 7.335 0 00-2.16-5.221 7.383 7.383 0 00-12.607 5.221c0 1.425.5 2.897 1.223 4.279.722 1.38 1.66 2.656 2.522 3.685a32.042 32.042 0 003.638 3.69 32.052 32.052 0 003.639-3.69zm-3.639-13.58a5.623 5.623 0 015.617 5.616c0 1.325-.6 3.556-3.333 6.833a30.628 30.628 0 01-2.144 2.303l-.14.135-.139-.135a30.46 30.46 0 01-2.143-2.306c-2.735-3.272-3.334-5.504-3.334-6.83a5.623 5.623 0 015.616-5.616zm0 14.608a30.262 30.262 0 01-2.128-2.29c-2.717-3.251-3.288-5.438-3.288-6.702a5.423 5.423 0 015.416-5.416 5.423 5.423 0 015.417 5.416c0 1.262-.57 3.45-3.287 6.705A30.43 30.43 0 0113 19.825zm-3.05-8.992a3.05 3.05 0 106.1 0 3.05 3.05 0 00-6.1 0zm-.2 0a3.25 3.25 0 106.5 0 3.25 3.25 0 00-6.5 0z" fill="#fff"/></svg>