<svg width="24" height="22" fill="none" xmlns="http://www.w3.org/2000/svg"><path fill-rule="evenodd" clip-rule="evenodd" d="M15.722 4.778a1.375 1.375 0 00-.972-.403h-5.5A1.375 1.375 0 007.875 5.75v11a1.375 1.375 0 001.375 1.375h5.5a1.375 1.375 0 001.375-1.375v-11c0-.365-.145-.714-.403-.972zm-8.417-.973A2.75 2.75 0 019.25 3h5.5a2.75 2.75 0 012.75 2.75v11a2.75 2.75 0 01-2.75 2.75h-5.5a2.75 2.75 0 01-2.75-2.75v-11c0-.73.29-1.429.805-1.945zm5.667 12.543a1.375 1.375 0 11-1.944-1.945 1.375 1.375 0 011.944 1.944zM3.407 5.998a.687.687 0 00-1.138.117A10.966 10.966 0 001 11.25a10.956 10.956 0 001.27 5.134.688.688 0 001.215-.643 9.582 9.582 0 01-1.11-4.49 9.58 9.58 0 011.11-4.492.687.687 0 00-.078-.76zm17.651-.246a.687.687 0 00-.543 1.006 9.582 9.582 0 011.11 4.491 9.58 9.58 0 01-1.11 4.491.688.688 0 101.216.643A10.955 10.955 0 0023 11.25a10.955 10.955 0 00-1.27-5.134.687.687 0 00-.672-.363zM5.43 8.003a.688.688 0 00-1.116.247 8.213 8.213 0 00-.564 3c0 1.027.19 2.044.564 3a.689.689 0 101.279-.5 6.852 6.852 0 01-.468-2.5 6.856 6.856 0 01.469-2.5.688.688 0 00-.164-.746zm13.63-.19a.688.688 0 00-.652.937c.302.775.467 1.617.467 2.5s-.165 1.726-.468 2.5a.688.688 0 001.28.5c.364-.93.563-1.942.563-3 0-1.057-.2-2.07-.562-3a.688.688 0 00-.627-.438z" fill="#C39F7B"/><path d="M15.722 4.778l.106-.106-.106.106zm-7.444 0l-.106-.106.106.106zm0 12.944l-.106.106.106-.106zm7.444 0l.106.106-.106-.106zM7.305 3.805L7.2 3.7l.106.106zm9.39 0L16.8 3.7l-.106.106zM3.199 5.83l-.07.133.07-.133zm.208.17l-.116.095.116-.096zm-1.138.116l-.132-.07.132.07zM1 11.25h.15H1zm1.27 5.134l-.133.07.132-.07zm1.215-.643l-.133.07.133-.07zm-1.11-4.49h.15v-.001h-.15zm1.11-4.492l-.133-.07.133.07zm.05-.524l-.144.045.143-.045zM20.8 5.83l.07.133-.07-.133zm-.208.17l.116.095-.116-.096zm-.127.235l.143.045-.143-.045zm.05.524l.132-.07-.133.07zm1.109 4.491h-.15.15zm-1.11 4.491l.133.07-.133-.07zm1.216.643l.132.07-.132-.07zM23 11.25h-.15.15zm-1.27-5.134l.133-.07-.132.07zM5.204 7.859l.055-.14-.055.14zm.227.145l-.104.108.104-.108zm-1.116.246l.14.055-.14-.055zm-.564 3h.15-.15zm.564 3l.142-.047-.003-.007-.14.055zm1.279-.5l-.14.055.003.007.137-.062zm-.468-2.5h.15-.15zm.469-2.5l-.14-.054.14.054zm.047-.264l-.15.003.15-.003zm-.058-.262l.138-.06-.138.06zm13.214-.365l-.055-.14.055.14zm.264-.047l.003-.15-.003.15zm-.643.412l.137.06-.137-.06zm-.01.526l.14-.054-.14.054zm0 5l-.14-.055-.003.008.142.047zm1.278.5l.137.062.003-.007-.14-.054zm.002-6l-.14.054.14-.054zm-.145-.226l-.108.104.108-.104zm-.22-.154l-.06.137.06-.137zM14.75 4.525c.325 0 .636.13.866.359l.212-.212a1.525 1.525 0 00-1.078-.447v.3zm-5.5 0h5.5v-.3h-5.5v.3zm-.866.359c.23-.23.541-.359.866-.359v-.3c-.404 0-.792.16-1.078.447l.212.212zm-.359.866c0-.325.13-.636.359-.866l-.212-.212a1.525 1.525 0 00-.447 1.078h.3zm0 11v-11h-.3v11h.3zm.359.866a1.225 1.225 0 01-.359-.866h-.3c0 .404.16.792.447 1.078l.212-.212zm.866.359c-.325 0-.636-.13-.866-.359l-.212.212c.286.286.674.447 1.078.447v-.3zm5.5 0h-5.5v.3h5.5v-.3zm.866-.359c-.23.23-.541.359-.866.359v.3c.405 0 .792-.16 1.078-.447l-.212-.212zm.359-.866c0 .325-.13.637-.359.866l.212.212c.286-.286.447-.674.447-1.078h-.3zm0-11v11h.3v-11h-.3zm-.359-.866c.23.23.359.541.359.866h.3c0-.404-.16-.792-.447-1.078l-.212.212zM9.25 2.85a2.9 2.9 0 00-2.05.85l.212.212A2.6 2.6 0 019.25 3.15v-.3zm5.5 0h-5.5v.3h5.5v-.3zm2.05.85a2.9 2.9 0 00-2.05-.85v.3a2.6 2.6 0 011.838.762l.213-.213zm.85 2.05a2.9 2.9 0 00-.85-2.05l-.212.212a2.6 2.6 0 01.762 1.838h.3zm0 11v-11h-.3v11h.3zm-.85 2.05a2.9 2.9 0 00.85-2.05h-.3a2.6 2.6 0 01-.762 1.838l.213.213zm-2.05.85a2.9 2.9 0 002.05-.85l-.212-.212a2.6 2.6 0 01-1.838.762v.3zm-5.5 0h5.5v-.3h-5.5v.3zM7.2 18.8a2.9 2.9 0 002.05.85v-.3a2.6 2.6 0 01-1.838-.762l-.213.213zm-.85-2.05a2.9 2.9 0 00.85 2.05l.212-.212a2.6 2.6 0 01-.762-1.838h-.3zm0-11v11h.3v-11h-.3zM7.2 3.7a2.9 2.9 0 00-.85 2.05h.3c0-.69.274-1.35.762-1.838l-.213-.213zM12 16.9c.405 0 .792-.16 1.078-.446l-.212-.213c-.23.23-.541.36-.866.36v.3zm-1.078-.446c.286.286.674.446 1.078.446v-.3c-.325 0-.636-.129-.866-.359l-.212.213zm-.447-1.079c0 .405.16.793.447 1.079l.212-.213a1.225 1.225 0 01-.359-.866h-.3zm.447-1.078a1.525 1.525 0 00-.447 1.078h.3c0-.325.13-.636.359-.866l-.212-.212zM12 13.85c-.404 0-.792.16-1.078.447l.212.212c.23-.23.541-.359.866-.359v-.3zm1.078.447A1.525 1.525 0 0012 13.85v.3c.325 0 .636.13.866.359l.212-.212zm.447 1.078c0-.404-.16-.792-.447-1.078l-.212.212c.23.23.359.541.359.866h.3zm-.447 1.079c.286-.286.447-.674.447-1.079h-.3c0 .325-.13.637-.359.866l.212.213zM3.128 5.963a.537.537 0 01.163.132l.231-.191a.838.838 0 00-.253-.207l-.14.266zm-.2-.06c.07.006.138.026.2.06l.14-.266a.837.837 0 00-.312-.093l-.029.298zm-.21.02a.537.537 0 01.21-.02l.028-.3a.838.838 0 00-.325.034l.088.287zm-.184.1a.537.537 0 01.185-.1l-.088-.286a.838.838 0 00-.288.155l.191.231zm-.132.163a.537.537 0 01.132-.163l-.191-.23a.838.838 0 00-.206.253l.265.14zM1.15 11.25c0-1.827.453-3.552 1.252-5.064l-.266-.14A11.116 11.116 0 00.85 11.25h.3zm1.252 5.064A10.806 10.806 0 011.15 11.25h-.3c-.003 1.814.44 3.6 1.287 5.205l.265-.14zm.317.263a.538.538 0 01-.317-.263l-.265.14a.838.838 0 00.494.41l.088-.287zm.41-.04a.538.538 0 01-.41.04l-.088.286a.837.837 0 00.638-.06l-.14-.265zm.262-.316a.538.538 0 01-.263.317l.14.265a.838.838 0 00.41-.494l-.287-.088zm-.039-.41c.067.126.08.274.039.41l.287.088a.838.838 0 00-.06-.638l-.266.14zm-1.127-4.56c0 1.647.408 3.2 1.127 4.56l.265-.14a9.432 9.432 0 01-1.092-4.42h-.3zm1.127-4.562a9.73 9.73 0 00-1.127 4.562l.3-.001a9.43 9.43 0 011.092-4.42l-.265-.14zm.06-.2a.537.537 0 01-.06.2l.265.14a.837.837 0 00.094-.312l-.299-.029zm-.021-.21c.02.068.028.139.021.21l.299.028a.837.837 0 00-.033-.326l-.287.089zm-.1-.184a.537.537 0 01.1.185l.287-.089a.837.837 0 00-.156-.287l-.23.191zm17.58-.132a.538.538 0 01.202-.06l-.029-.3a.837.837 0 00-.313.094l.14.266zm-.162.132c.045-.054.1-.1.163-.132l-.14-.266a.837.837 0 00-.254.207l.23.191zm-.1.185a.537.537 0 01.1-.185l-.231-.191a.84.84 0 00-.156.287l.287.089zm-.021.208a.538.538 0 01.021-.208l-.287-.089a.84.84 0 00-.033.326l.299-.029zm.06.201a.54.54 0 01-.06-.2l-.299.028c.01.11.042.215.094.313l.265-.14zm1.127 4.561c0-1.647-.408-3.2-1.127-4.56l-.265.14a9.43 9.43 0 011.092 4.42h.3zm-1.127 4.561a9.729 9.729 0 001.127-4.561h-.3a9.43 9.43 0 01-1.092 4.42l.265.141zm-.039.41a.537.537 0 01.039-.41l-.265-.14a.838.838 0 00-.06.638l.286-.088zm.263.317a.538.538 0 01-.263-.317l-.287.088c.066.212.213.39.41.494l.14-.265zm.41.039a.538.538 0 01-.41-.04l-.14.266a.837.837 0 00.637.06l-.088-.286zm.316-.263a.538.538 0 01-.317.263l.088.286a.838.838 0 00.494-.408l-.265-.14zm1.252-5.064a10.806 10.806 0 01-1.252 5.064l.265.14a11.104 11.104 0 001.287-5.204h-.3zm-1.252-5.064c.825 1.56 1.255 3.3 1.252 5.064h.3c.003-1.813-.439-3.6-1.287-5.204l-.265.14zm-.132-.163c.054.045.1.1.132.163l.265-.14a.84.84 0 00-.206-.254l-.191.231zm-.185-.1c.068.022.13.055.185.1l.191-.23a.838.838 0 00-.288-.156l-.088.287zm-.208-.02c.07-.007.14 0 .208.02l.088-.286a.837.837 0 00-.325-.033l.029.298zM5.149 7.998a.538.538 0 01.177.113l.207-.216a.837.837 0 00-.275-.176l-.11.28zm-.41.009a.538.538 0 01.41-.009l.109-.28a.837.837 0 00-.64.014l.12.275zm-.286.297a.538.538 0 01.285-.297l-.12-.275a.837.837 0 00-.444.462l.28.11zM3.9 11.25c0-1.038.196-2.032.553-2.945l-.279-.11A8.363 8.363 0 003.6 11.25h.3zm.553 2.946A8.08 8.08 0 013.9 11.25h-.3a8.38 8.38 0 00.574 3.055l.28-.11zm.111.194a.538.538 0 01-.108-.187l-.285.095a.837.837 0 00.17.292l.223-.2zm.174.13a.537.537 0 01-.174-.13l-.224.2a.837.837 0 00.27.201l.128-.271zm.21.05a.538.538 0 01-.21-.05l-.127.271a.839.839 0 00.328.079l.01-.3zm.214-.037a.536.536 0 01-.213.037l-.01.3a.839.839 0 00.332-.057l-.11-.28zm.181-.117a.536.536 0 01-.181.117l.11.28a.837.837 0 00.282-.184l-.21-.213zm.12-.18a.538.538 0 01-.12.18l.211.213a.837.837 0 00.188-.28l-.278-.113zm.04-.213a.538.538 0 01-.04.213l.279.113a.838.838 0 00.061-.332l-.3.006zm-.047-.211c.03.066.046.138.047.21l.3-.005a.838.838 0 00-.074-.329l-.273.124zm-.481-2.562c0 .902.169 1.763.478 2.555l.28-.11a6.702 6.702 0 01-.458-2.445h-.3zm.48-2.554a7.006 7.006 0 00-.48 2.554h.3a6.706 6.706 0 01.459-2.445l-.28-.109zm.036-.207a.538.538 0 01-.037.207l.28.11a.838.838 0 00.057-.323l-.3.006zm-.045-.205a.538.538 0 01.045.205l.3-.006a.838.838 0 00-.07-.32l-.275.121zm-.12-.172a.537.537 0 01.12.172l.275-.12a.838.838 0 00-.188-.268l-.207.216zM18.85 8a.538.538 0 01.207-.037l.006-.3a.837.837 0 00-.322.058l.11.28zm-.296.285A.538.538 0 0118.851 8l-.11-.28a.838.838 0 00-.46.445l.274.12zm-.008.412a.537.537 0 01.008-.412l-.275-.12a.837.837 0 00-.012.641l.28-.11zm.478 2.554a7 7 0 00-.478-2.554l-.28.11a6.7 6.7 0 01.458 2.444h.3zm-.478 2.555a7 7 0 00.478-2.555h-.3c0 .864-.161 1.688-.457 2.445l.28.11zm.026.39a.538.538 0 01-.023-.398l-.285-.095a.838.838 0 00.036.62l.272-.127zm.29.273a.537.537 0 01-.29-.273l-.272.128a.837.837 0 00.453.424l.11-.279zm.4-.003a.537.537 0 01-.4.003l-.109.28a.84.84 0 00.622-.005l-.114-.278zm.287-.276a.537.537 0 01-.288.276l.114.278a.838.838 0 00.447-.43l-.273-.124zm.55-2.939a8.065 8.065 0 01-.553 2.946l.279.11a8.363 8.363 0 00.574-3.056h-.3zm-.552-2.946c.356.914.552 1.908.552 2.946h.3a8.392 8.392 0 00-.573-3.055l-.28.11zm-.113-.176a.538.538 0 01.113.176l.28-.109a.838.838 0 00-.177-.275l-.216.208zm-.172-.12a.529.529 0 01.172.12l.216-.208a.838.838 0 00-.268-.187l-.12.274zm-.205-.046a.56.56 0 01.205.045l.12-.274a.837.837 0 00-.32-.07l-.005.3z" fill="#C39F7B"/></svg>