<svg width="24" height="24" fill="none" xmlns="http://www.w3.org/2000/svg"><path d="M18 9.75h-1.5a2.252 2.252 0 00-2.25-2.25V6A3.754 3.754 0 0118 9.75z" fill="#C39F7B"/><path d="M21 9.75h-1.5a5.256 5.256 0 00-5.25-5.25V3A6.758 6.758 0 0121 9.75zm-5.751 6.361l1.68-1.68a1.626 1.626 0 011.753-.36l2.046.82a1.626 1.626 0 011.021 1.508v3.721a1.626 1.626 0 01-1.713 1.627C5.695 20.855 2.798 8.707 2.261 4.056A1.622 1.622 0 013.876 2.25h3.655A1.625 1.625 0 019.04 3.272l.818 2.046a1.626 1.626 0 01-.36 1.752l-1.68 1.68s.932 6.55 7.431 7.361z" fill="#C39F7B"/></svg>