<svg width="29" height="29" fill="none" xmlns="http://www.w3.org/2000/svg"><path d="M24.165 23.671V9.666l-7.25-7.25H7.25a2.413 2.413 0 00-2.405 2.417l-.012 19.334a2.413 2.413 0 002.405 2.416H21.75c.543 0 1.027-.181 1.438-.483l-5.353-5.353A6.086 6.086 0 0114.5 21.75a6.044 6.044 0 01-6.042-6.042A6.044 6.044 0 0114.5 9.666a6.044 6.044 0 016.041 6.042 6.015 6.015 0 01-1.003 3.323l4.628 4.64zm-13.291-7.963a3.62 3.62 0 003.625 3.625 3.62 3.62 0 003.625-3.625 3.62 3.62 0 00-3.625-3.625 3.62 3.62 0 00-3.625 3.625z" fill="#C39F7B"/></svg>