<svg width="29" height="29" fill="none" xmlns="http://www.w3.org/2000/svg"><g clip-path="url(#clip0_163_245)" fill="#fff"><path d="M22.963 4.404L21.509 5.83s-.486-.11-.824-.274l-2.277-1.108a2.24 2.24 0 00-.965-.2c-.5 0-1.015.135-1.376.39l-3.522 2.47a1.331 1.331 0 00-.301 1.883l.209.282c.286.386.755.597 1.223.597.264 0 .527-.066.758-.206l1.671-1.067c.296-.178.671-.265 1.05-.265.446 0 .896.12 1.225.358l2.426 2.222a26.57 26.57 0 012.107 1.725l2.203 2.048L29 10.183l-6.038-5.78z"/><path d="M24.436 16.336l-3.686-3.427c-.321-.26-1.035-.807-1.035-.807l-2.31-2.116a.742.742 0 00-.25-.04.601.601 0 00-.211.032l-1.676 1.068a3.078 3.078 0 01-1.592.438 3.14 3.14 0 01-2.52-1.25l-.209-.281a2.925 2.925 0 01-.544-2.223 2.928 2.928 0 011.215-1.944l.38-.266c-.548-.066-1.155-.008-1.6.182 0 0-.743.327-.982.428-.553.235-1.329.231-1.329.231l-1.82-1.695L0 10.89l2.357 2.37.535-.56a2.992 2.992 0 012.156-.922c.77 0 1.5.292 2.056.822l.254.241c.326.312.567.679.721 1.074.487.125.936.373 1.308.728l.253.241c.575.548.903 1.287.922 2.084.175.107.34.235.491.379l.255.243c.358.341.612.75.761 1.188.452.132.868.37 1.215.7l.258.245a2.986 2.986 0 01.475 3.728l.194.18c.549.512 1.416.48 1.927-.07l.239-.257a1.36 1.36 0 00-.043-1.89l1.767 1.64c.55.51 1.418.478 1.929-.073l.239-.257a1.368 1.368 0 00-.063-1.917l.454.422c.55.51 1.417.478 1.927-.071l.24-.257a1.37 1.37 0 00-.072-1.929l-.384-.356a1.367 1.367 0 001.896-.095l.24-.257a1.368 1.368 0 00-.07-1.928z"/><path d="M12.426 20.891l-.255-.242a1.36 1.36 0 00-.94-.376c-.36 0-.72.141-.988.422l-.004-.008a1.368 1.368 0 00-.046-1.928l-.255-.243a1.35 1.35 0 00-.935-.372c-.34 0-.68.126-.943.374l.511-.535a1.367 1.367 0 00-.046-1.928l-.254-.243a1.365 1.365 0 00-1.902.023 1.363 1.363 0 00-.127-1.824l-.254-.242a1.362 1.362 0 00-.941-.375c-.361 0-.72.14-.988.42L1.498 16.5a1.366 1.366 0 00.047 1.928l.253.242a1.368 1.368 0 001.803.061l-.675.707a1.37 1.37 0 00.046 1.929l.256.243c.263.25.603.375.94.375.361 0 .72-.141.988-.421l.527-.553a1.364 1.364 0 00.088 1.874l.256.242c.262.25.602.375.94.375.361 0 .72-.14.988-.421l.846-.876a1.367 1.367 0 00.046 1.928l.255.243c.263.25.602.375.94.375.36 0 .72-.14.987-.42l1.443-1.513a1.366 1.366 0 00-.046-1.927z"/></g><defs><clipPath id="clip0_163_245"><path fill="#fff" d="M0 0h29v29H0z"/></clipPath></defs></svg>