<svg width="25" height="25" fill="none" xmlns="http://www.w3.org/2000/svg"><path d="M16.406 1.563H14.71A2.346 2.346 0 0012.5 0a2.35 2.35 0 00-2.21 1.563H8.593a.782.782 0 00-.781.78V5.47c0 .431.35.781.78.781h7.813c.431 0 .782-.35.782-.781V2.344a.782.782 0 00-.782-.781z" fill="#C39F7B"/><path d="M20.313 3.125H18.75v2.344a2.347 2.347 0 01-2.344 2.343H8.594A2.347 2.347 0 016.25 5.47V3.125H4.687c-.86 0-1.562.702-1.562 1.563v18.75c0 .876.686 1.562 1.563 1.562h15.625c.876 0 1.562-.686 1.562-1.563V4.688c0-.876-.686-1.562-1.563-1.562zm-8.041 13.834l-3.125 3.125a.785.785 0 01-1.106 0l-1.563-1.562a.782.782 0 011.105-1.105l1.01 1.01 2.573-2.572a.782.782 0 011.106 1.104zm0-6.25l-3.125 3.125a.785.785 0 01-1.106 0l-1.563-1.562a.782.782 0 011.105-1.105l1.01 1.01 2.573-2.572a.782.782 0 011.106 1.104zm5.697 8.041h-3.125a.782.782 0 010-1.563h3.125a.782.782 0 010 1.563zm0-6.25h-3.125a.782.782 0 010-1.563h3.125a.782.782 0 010 1.563z" fill="#C39F7B"/></svg>